# Blender 4.0.0 Alpha
# www.blender.org
mtllib plane.mtl
o Plane
v 7.643836 0.000000 7.643836
v -7.643836 0.000000 7.643836
v 7.643836 0.000000 -7.643836
v -7.643836 0.000000 -7.643836
v 6.254047 0.000000 7.643836
v 4.864259 0.000000 7.643836
v 3.474471 0.000000 7.643836
v 2.084682 0.000000 7.643836
v 0.694894 0.000000 7.643836
v -0.694894 0.000000 7.643836
v -2.084682 0.000000 7.643836
v -3.474471 0.000000 7.643836
v -4.864259 0.000000 7.643836
v -6.254047 0.000000 7.643836
v -6.254047 0.000000 -7.643836
v -4.864259 0.000000 -7.643836
v -3.474471 0.000000 -7.643836
v -2.084682 0.000000 -7.643836
v -0.694894 0.000000 -7.643836
v 0.694894 0.000000 -7.643836
v 2.084682 0.000000 -7.643836
v 3.474471 0.000000 -7.643836
v 4.864259 0.000000 -7.643836
v 6.254047 0.000000 -7.643836
v 7.643836 0.000000 -6.369863
v 7.643836 0.000000 -5.095890
v 7.643836 0.000000 -3.821917
v 7.643836 0.000000 -2.547945
v 7.643836 0.000000 -1.273972
v 7.643836 0.000000 0.000001
v 7.643836 0.000000 1.273973
v 7.643836 0.000000 2.547945
v 7.643836 0.000000 3.821918
v 7.643836 0.000000 5.095891
v 7.643836 0.000000 6.369863
v -7.643836 0.000000 6.369863
v -7.643836 0.000000 5.095890
v -7.643836 0.000000 3.821917
v -7.643836 0.000000 2.547945
v -7.643836 0.000000 1.273972
v -7.643836 0.000000 -0.000001
v -7.643836 0.000000 -1.273973
v -7.643836 0.000000 -2.547945
v -7.643836 0.000000 -3.821918
v -7.643836 0.000000 -5.095891
v -7.643836 0.000000 -6.369863
v 6.254047 0.000000 6.369863
v 6.254047 0.000000 5.095890
v 6.254047 0.000000 3.821917
v 6.254047 0.000000 2.547945
v 6.254047 0.000000 1.273972
v 6.254047 0.000000 -0.000001
v 6.254047 0.000000 -1.273973
v 6.254047 0.000000 -2.547945
v 6.254047 0.000000 -3.821918
v 6.254047 0.000000 -5.095891
v 6.254047 0.000000 -6.369863
v 4.864259 0.000000 6.369863
v 4.864259 0.000000 5.095890
v 4.864259 0.000000 3.821917
v 4.864259 0.000000 2.547945
v 4.864259 0.000000 1.273972
v 4.864259 0.000000 -0.000001
v 4.864259 0.000000 -1.273973
v 4.864259 0.000000 -2.547945
v 4.864259 0.000000 -3.821918
v 4.864259 0.000000 -5.095891
v 4.864259 0.000000 -6.369863
v 3.474471 0.000000 6.369863
v 3.474471 0.000000 5.095890
v 3.474471 0.000000 3.821917
v 3.474471 0.000000 2.547945
v 3.474471 0.000000 1.273972
v 3.474471 0.000000 -0.000001
v 3.474471 0.000000 -1.273973
v 3.474471 0.000000 -2.547945
v 3.474471 0.000000 -3.821918
v 3.474471 0.000000 -5.095891
v 3.474471 0.000000 -6.369863
v 2.084682 0.000000 6.369863
v 2.084682 0.000000 5.095890
v 2.084682 0.000000 3.821917
v 2.084682 0.000000 2.547945
v 2.084682 0.000000 1.273972
v 2.084682 0.000000 -0.000001
v 2.084682 0.000000 -1.273973
v 2.084682 0.000000 -2.547945
v 2.084682 0.000000 -3.821918
v 2.084682 0.000000 -5.095891
v 2.084682 0.000000 -6.369863
v 0.694894 0.000000 6.369863
v 0.694894 0.000000 5.095890
v 0.694894 0.000000 3.821917
v 0.694894 0.000000 2.547945
v 0.694894 0.000000 1.273972
v 0.694894 0.000000 -0.000001
v 0.694894 0.000000 -1.273973
v 0.694894 0.000000 -2.547945
v 0.694894 0.000000 -3.821918
v 0.694894 0.000000 -5.095891
v 0.694894 0.000000 -6.369863
v -0.694894 0.000000 6.369863
v -0.694894 0.000000 5.095890
v -0.694894 0.000000 3.821917
v -0.694894 0.000000 2.547945
v -0.694894 0.000000 1.273972
v -0.694894 0.000000 -0.000001
v -0.694894 0.000000 -1.273973
v -0.694894 0.000000 -2.547945
v -0.694894 0.000000 -3.821918
v -0.694894 0.000000 -5.095891
v -0.694894 0.000000 -6.369863
v -2.084682 0.000000 6.369863
v -2.084682 0.000000 5.095890
v -2.084682 0.000000 3.821917
v -2.084682 0.000000 2.547945
v -2.084682 0.000000 1.273972
v -2.084682 0.000000 -0.000001
v -2.084682 0.000000 -1.273973
v -2.084682 0.000000 -2.547945
v -2.084682 0.000000 -3.821918
v -2.084682 0.000000 -5.095891
v -2.084682 0.000000 -6.369863
v -3.474471 0.000000 6.369863
v -3.474471 0.000000 5.095890
v -3.474471 0.000000 3.821917
v -3.474471 0.000000 2.547945
v -3.474471 0.000000 1.273972
v -3.474471 0.000000 -0.000001
v -3.474471 0.000000 -1.273973
v -3.474471 0.000000 -2.547945
v -3.474471 0.000000 -3.821918
v -3.474471 0.000000 -5.095891
v -3.474471 0.000000 -6.369863
v -4.864259 0.000000 6.369863
v -4.864259 0.000000 5.095890
v -4.864259 0.000000 3.821917
v -4.864259 0.000000 2.547945
v -4.864259 0.000000 1.273972
v -4.864259 0.000000 -0.000001
v -4.864259 0.000000 -1.273973
v -4.864259 0.000000 -2.547945
v -4.864259 0.000000 -3.821918
v -4.864259 0.000000 -5.095891
v -4.864259 0.000000 -6.369863
v -6.254047 0.000000 6.369863
v -6.254047 0.000000 5.095890
v -6.254047 0.000000 3.821917
v -6.254047 0.000000 2.547945
v -6.254047 0.000000 1.273972
v -6.254047 0.000000 -0.000001
v -6.254047 0.000000 -1.273973
v -6.254047 0.000000 -2.547945
v -6.254047 0.000000 -3.821918
v -6.254047 0.000000 -5.095891
v -6.254047 0.000000 -6.369863
v 6.254047 -1.931898 -5.095891
v 6.254047 -1.931898 -6.369863
v 4.864259 -1.931898 -5.095891
v 4.864259 -1.931898 -6.369863
v -3.474471 -3.487812 -2.547945
v -3.474471 -3.487812 -3.821918
v -4.864259 -3.487812 -2.547945
v -4.864259 -3.487812 -3.821918
v 4.864259 -4.805036 2.547945
v 4.864259 -4.805036 1.273972
v 3.474471 -4.805036 2.547945
v 3.474471 -4.805036 1.273972
v -3.474471 -4.325390 6.369863
v -3.474471 -4.325390 5.095890
v -4.864259 -4.325390 6.369863
v -4.864259 -4.325390 5.095890
v -0.694894 -7.326992 -5.095891
v -0.694894 -7.326992 -6.369863
v -2.084682 -7.326992 -5.095891
v -2.084682 -7.326992 -6.369863
v 3.474471 -7.051642 1.273972
v 3.474471 -7.051642 -0.000001
v 2.084682 -7.051642 1.273972
v 2.084682 -7.051642 -0.000001
vn -0.0000 -1.0000 -0.0000
vn 1.0000 -0.0000 -0.0000
vn -0.0000 -0.0000 1.0000
vn -1.0000 -0.0000 -0.0000
vn -0.0000 -0.0000 -1.0000
vt 1.000000 0.916667
vt 0.909091 1.000000
vt 0.909091 0.916667
vt 0.090909 0.916667
vt 0.000000 1.000000
vt 0.000000 0.916667
vt 0.181818 0.916667
vt 0.090909 1.000000
vt 0.272727 1.000000
vt 0.181818 1.000000
vt 0.272727 0.916667
vt 0.363636 1.000000
vt 0.363636 0.916667
vt 0.454545 1.000000
vt 0.545455 0.916667
vt 0.454546 0.916667
vt 0.636364 0.916667
vt 0.545455 1.000000
vt 0.727273 0.916667
vt 0.636364 1.000000
vt 0.818182 0.916667
vt 0.727273 1.000000
vt 0.818182 1.000000
vt 0.909091 0.000000
vt 0.818182 0.083333
vt 0.818182 0.000000
vt 0.909091 0.083333
vt 0.818182 0.166667
vt 0.909091 0.166667
vt 0.818182 0.250000
vt 0.909091 0.250000
vt 0.818182 0.333333
vt 0.909091 0.333333
vt 0.818182 0.416667
vt 0.909091 0.416667
vt 0.818182 0.500000
vt 0.909091 0.500000
vt 0.818182 0.583333
vt 0.909091 0.583333
vt 0.818182 0.666667
vt 0.909091 0.666667
vt 0.818182 0.750000
vt 0.909091 0.750000
vt 0.818182 0.833333
vt 0.909091 0.833333
vt 0.727273 0.083333
vt 0.727273 0.000000
vt 0.727273 0.166667
vt 0.727273 0.250000
vt 0.727273 0.333333
vt 0.727273 0.416667
vt 0.727273 0.500000
vt 0.727273 0.583333
vt 0.727273 0.666667
vt 0.727273 0.750000
vt 0.727273 0.833333
vt 0.636364 0.083333
vt 0.636364 0.000000
vt 0.636364 0.166667
vt 0.636364 0.250000
vt 0.636364 0.333333
vt 0.636364 0.416667
vt 0.636364 0.500000
vt 0.636364 0.583333
vt 0.636364 0.666667
vt 0.636364 0.750000
vt 0.636364 0.833333
vt 0.545455 0.083333
vt 0.545455 0.000000
vt 0.545455 0.166667
vt 0.545455 0.250000
vt 0.545455 0.333333
vt 0.545455 0.416667
vt 0.545455 0.500000
vt 0.545455 0.583333
vt 0.545455 0.666667
vt 0.545455 0.750000
vt 0.545455 0.833333
vt 0.454545 0.083333
vt 0.454545 0.000000
vt 0.454546 0.166667
vt 0.454545 0.250000
vt 0.454545 0.333333
vt 0.454545 0.416667
vt 0.454546 0.500000
vt 0.454545 0.583333
vt 0.454545 0.666667
vt 0.454545 0.750000
vt 0.454546 0.833333
vt 0.363636 0.083333
vt 0.363636 0.000000
vt 0.363636 0.166667
vt 0.363636 0.250000
vt 0.363636 0.333333
vt 0.363636 0.416667
vt 0.363636 0.500000
vt 0.363636 0.583333
vt 0.363636 0.666667
vt 0.363636 0.750000
vt 0.363636 0.833333
vt 0.272727 0.083333
vt 0.272727 0.000000
vt 0.272727 0.166667
vt 0.272727 0.250000
vt 0.272727 0.333333
vt 0.272727 0.416667
vt 0.272727 0.583333
vt 0.272727 0.500000
vt 0.272727 0.666667
vt 0.272727 0.750000
vt 0.272727 0.833333
vt 0.181818 0.083333
vt 0.181818 0.000000
vt 0.181818 0.166667
vt 0.181818 0.250000
vt 0.181818 0.333333
vt 0.181818 0.500000
vt 0.181818 0.416667
vt 0.181818 0.583333
vt 0.181818 0.666667
vt 0.181818 0.750000
vt 0.181818 0.833333
vt 0.090909 0.083333
vt 0.090909 0.000000
vt 0.090909 0.166667
vt 0.090909 0.250000
vt 0.090909 0.333333
vt 0.090909 0.416667
vt 0.090909 0.500000
vt 0.090909 0.583333
vt 0.090909 0.666667
vt 0.090909 0.750000
vt 0.090909 0.833333
vt 0.000000 0.083333
vt 0.000000 0.000000
vt 0.000000 0.166667
vt 0.000000 0.250000
vt 0.000000 0.333333
vt 0.000000 0.416667
vt 0.000000 0.500000
vt 0.000000 0.583333
vt 0.000000 0.666667
vt 0.000000 0.750000
vt 0.000000 0.833333
vt 1.000000 0.000000
vt 1.000000 0.083333
vt 1.000000 0.166667
vt 1.000000 0.250000
vt 1.000000 0.333333
vt 1.000000 0.416667
vt 1.000000 0.500000
vt 1.000000 0.583333
vt 1.000000 0.666667
vt 1.000000 0.750000
vt 1.000000 0.833333
vt 1.000000 1.000000
s 0
usemtl Material
f 46/1/1 15/2/1 156/3/1
f 57/4/1 3/5/1 25/6/1
f 68/7/1 24/8/1 57/4/1
f 68/7/1 22/9/1 23/10/1
f 79/11/1 21/12/1 22/9/1
f 90/13/1 20/14/1 21/12/1
f 112/15/1 20/14/1 101/16/1
f 123/17/1 19/18/1 112/15/1
f 134/19/1 18/20/1 123/17/1
f 145/21/1 17/22/1 134/19/1
f 156/3/1 16/23/1 145/21/1
f 14/24/1 135/25/1 13/26/1
f 146/27/1 136/28/1 135/25/1
f 147/29/1 137/30/1 136/28/1
f 148/31/1 138/32/1 137/30/1
f 149/33/1 139/34/1 138/32/1
f 150/35/1 140/36/1 139/34/1
f 151/37/1 141/38/1 140/36/1
f 152/39/1 142/40/1 141/38/1
f 153/41/1 143/42/1 142/40/1
f 154/43/1 144/44/1 143/42/1
f 155/45/1 145/21/1 144/44/1
f 13/26/1 124/46/1 12/47/1
f 124/46/2 170/48/2 125/48/2
f 136/28/1 126/49/1 125/48/1
f 137/30/1 127/50/1 126/49/1
f 138/32/1 128/51/1 127/50/1
f 139/34/1 129/52/1 128/51/1
f 140/36/1 130/53/1 129/52/1
f 141/38/1 131/54/1 130/53/1
f 131/54/2 162/55/2 132/55/2
f 143/42/1 133/56/1 132/55/1
f 144/44/1 134/19/1 133/56/1
f 12/47/1 113/57/1 11/58/1
f 124/46/1 114/59/1 113/57/1
f 125/48/1 115/60/1 114/59/1
f 126/49/1 116/61/1 115/60/1
f 127/50/1 117/62/1 116/61/1
f 128/51/1 118/63/1 117/62/1
f 129/52/1 119/64/1 118/63/1
f 130/53/1 120/65/1 119/64/1
f 131/54/1 121/66/1 120/65/1
f 132/55/1 122/67/1 121/66/1
f 122/67/1 134/19/1 123/17/1
f 11/58/1 102/68/1 10/69/1
f 113/57/1 103/70/1 102/68/1
f 103/70/1 115/60/1 104/71/1
f 115/60/1 105/72/1 104/71/1
f 116/61/1 106/73/1 105/72/1
f 117/62/1 107/74/1 106/73/1
f 118/63/1 108/75/1 107/74/1
f 119/64/1 109/76/1 108/75/1
f 120/65/1 110/77/1 109/76/1
f 121/66/1 111/78/1 110/77/1
f 111/78/2 174/15/2 112/15/2
f 10/69/1 91/79/1 9/80/1
f 102/68/1 92/81/1 91/79/1
f 103/70/1 93/82/1 92/81/1
f 104/71/1 94/83/1 93/82/1
f 105/72/1 95/84/1 94/83/1
f 106/73/1 96/85/1 95/84/1
f 107/74/1 97/86/1 96/85/1
f 108/75/1 98/87/1 97/86/1
f 109/76/1 99/88/1 98/87/1
f 110/77/1 100/89/1 99/88/1
f 111/78/1 101/16/1 100/89/1
f 9/80/1 80/90/1 8/91/1
f 91/79/1 81/92/1 80/90/1
f 92/81/1 82/93/1 81/92/1
f 93/82/1 83/94/1 82/93/1
f 94/83/1 84/95/1 83/94/1
f 95/84/1 85/96/1 84/95/1
f 96/85/1 86/97/1 85/96/1
f 97/86/1 87/98/1 86/97/1
f 98/87/1 88/99/1 87/98/1
f 99/88/1 89/100/1 88/99/1
f 100/89/1 90/13/1 89/100/1
f 8/91/1 69/101/1 7/102/1
f 80/90/1 70/103/1 69/101/1
f 81/92/1 71/104/1 70/103/1
f 82/93/1 72/105/1 71/104/1
f 83/94/1 73/106/1 72/105/1
f 84/95/3 177/106/3 73/106/3
f 85/96/1 75/107/1 74/108/1
f 86/97/1 76/109/1 75/107/1
f 87/98/1 77/110/1 76/109/1
f 88/99/1 78/111/1 77/110/1
f 89/100/1 79/11/1 78/111/1
f 7/102/1 58/112/1 6/113/1
f 69/101/1 59/114/1 58/112/1
f 70/103/1 60/115/1 59/114/1
f 71/104/1 61/116/1 60/115/1
f 72/105/3 165/116/3 61/116/3
f 73/106/1 63/117/1 62/118/1
f 74/108/1 64/119/1 63/117/1
f 75/107/1 65/120/1 64/119/1
f 76/109/1 66/121/1 65/120/1
f 77/110/1 67/122/1 66/121/1
f 78/111/1 68/7/1 67/122/1
f 6/113/1 47/123/1 5/124/1
f 58/112/1 48/125/1 47/123/1
f 59/114/1 49/126/1 48/125/1
f 60/115/1 50/127/1 49/126/1
f 61/116/1 51/128/1 50/127/1
f 62/118/1 52/129/1 51/128/1
f 63/117/1 53/130/1 52/129/1
f 64/119/1 54/131/1 53/130/1
f 65/120/1 55/132/1 54/131/1
f 66/121/1 56/133/1 55/132/1
f 56/133/2 158/4/2 57/4/2
f 5/124/1 35/134/1 1/135/1
f 47/123/1 34/136/1 35/134/1
f 48/125/1 33/137/1 34/136/1
f 49/126/1 32/138/1 33/137/1
f 50/127/1 31/139/1 32/138/1
f 51/128/1 30/140/1 31/139/1
f 52/129/1 29/141/1 30/140/1
f 53/130/1 28/142/1 29/141/1
f 54/131/1 27/143/1 28/142/1
f 55/132/1 26/144/1 27/143/1
f 56/133/1 25/6/1 26/144/1
f 2/145/1 146/27/1 14/24/1
f 36/146/1 147/29/1 146/27/1
f 37/147/1 148/31/1 147/29/1
f 38/148/1 149/33/1 148/31/1
f 39/149/1 150/35/1 149/33/1
f 40/150/1 151/37/1 150/35/1
f 41/151/1 152/39/1 151/37/1
f 42/152/1 153/41/1 152/39/1
f 43/153/1 154/43/1 153/41/1
f 44/154/1 155/45/1 154/43/1
f 45/155/1 156/3/1 155/45/1
f 159/122/1 158/4/1 157/133/1
f 68/7/4 159/122/4 67/122/4
f 57/4/5 160/7/5 68/7/5
f 67/122/3 157/133/3 56/133/3
f 163/40/1 162/55/1 161/54/1
f 143/42/4 163/40/4 142/40/4
f 132/55/5 164/42/5 143/42/5
f 142/40/3 161/54/3 131/54/3
f 167/105/1 166/118/1 165/116/1
f 61/116/2 166/118/2 62/118/2
f 73/106/4 167/105/4 72/105/4
f 62/118/5 168/106/5 73/106/5
f 171/25/1 170/48/1 169/46/1
f 136/28/4 171/25/4 135/25/4
f 125/48/5 172/28/5 136/28/5
f 135/25/3 169/46/3 124/46/3
f 173/78/1 176/17/1 174/15/1
f 123/17/4 175/67/4 122/67/4
f 112/15/5 176/17/5 123/17/5
f 122/67/3 173/78/3 111/78/3
f 179/95/1 178/108/1 177/106/1
f 73/106/2 178/108/2 74/108/2
f 85/96/4 179/95/4 84/95/4
f 74/108/5 180/96/5 85/96/5
f 46/1/1 4/156/1 15/2/1
f 57/4/1 24/8/1 3/5/1
f 68/7/1 23/10/1 24/8/1
f 68/7/1 79/11/1 22/9/1
f 79/11/1 90/13/1 21/12/1
f 90/13/1 101/16/1 20/14/1
f 112/15/1 19/18/1 20/14/1
f 123/17/1 18/20/1 19/18/1
f 134/19/1 17/22/1 18/20/1
f 145/21/1 16/23/1 17/22/1
f 156/3/1 15/2/1 16/23/1
f 14/24/1 146/27/1 135/25/1
f 146/27/1 147/29/1 136/28/1
f 147/29/1 148/31/1 137/30/1
f 148/31/1 149/33/1 138/32/1
f 149/33/1 150/35/1 139/34/1
f 150/35/1 151/37/1 140/36/1
f 151/37/1 152/39/1 141/38/1
f 152/39/1 153/41/1 142/40/1
f 153/41/1 154/43/1 143/42/1
f 154/43/1 155/45/1 144/44/1
f 155/45/1 156/3/1 145/21/1
f 13/26/1 135/25/1 124/46/1
f 124/46/2 169/46/2 170/48/2
f 136/28/1 137/30/1 126/49/1
f 137/30/1 138/32/1 127/50/1
f 138/32/1 139/34/1 128/51/1
f 139/34/1 140/36/1 129/52/1
f 140/36/1 141/38/1 130/53/1
f 141/38/1 142/40/1 131/54/1
f 131/54/2 161/54/2 162/55/2
f 143/42/1 144/44/1 133/56/1
f 144/44/1 145/21/1 134/19/1
f 12/47/1 124/46/1 113/57/1
f 124/46/1 125/48/1 114/59/1
f 125/48/1 126/49/1 115/60/1
f 126/49/1 127/50/1 116/61/1
f 127/50/1 128/51/1 117/62/1
f 128/51/1 129/52/1 118/63/1
f 129/52/1 130/53/1 119/64/1
f 130/53/1 131/54/1 120/65/1
f 131/54/1 132/55/1 121/66/1
f 132/55/1 133/56/1 122/67/1
f 122/67/1 133/56/1 134/19/1
f 11/58/1 113/57/1 102/68/1
f 113/57/1 114/59/1 103/70/1
f 103/70/1 114/59/1 115/60/1
f 115/60/1 116/61/1 105/72/1
f 116/61/1 117/62/1 106/73/1
f 117/62/1 118/63/1 107/74/1
f 118/63/1 119/64/1 108/75/1
f 119/64/1 120/65/1 109/76/1
f 120/65/1 121/66/1 110/77/1
f 121/66/1 122/67/1 111/78/1
f 111/78/2 173/78/2 174/15/2
f 10/69/1 102/68/1 91/79/1
f 102/68/1 103/70/1 92/81/1
f 103/70/1 104/71/1 93/82/1
f 104/71/1 105/72/1 94/83/1
f 105/72/1 106/73/1 95/84/1
f 106/73/1 107/74/1 96/85/1
f 107/74/1 108/75/1 97/86/1
f 108/75/1 109/76/1 98/87/1
f 109/76/1 110/77/1 99/88/1
f 110/77/1 111/78/1 100/89/1
f 111/78/1 112/15/1 101/16/1
f 9/80/1 91/79/1 80/90/1
f 91/79/1 92/81/1 81/92/1
f 92/81/1 93/82/1 82/93/1
f 93/82/1 94/83/1 83/94/1
f 94/83/1 95/84/1 84/95/1
f 95/84/1 96/85/1 85/96/1
f 96/85/1 97/86/1 86/97/1
f 97/86/1 98/87/1 87/98/1
f 98/87/1 99/88/1 88/99/1
f 99/88/1 100/89/1 89/100/1
f 100/89/1 101/16/1 90/13/1
f 8/91/1 80/90/1 69/101/1
f 80/90/1 81/92/1 70/103/1
f 81/92/1 82/93/1 71/104/1
f 82/93/1 83/94/1 72/105/1
f 83/94/1 84/95/1 73/106/1
f 84/95/3 179/95/3 177/106/3
f 85/96/1 86/97/1 75/107/1
f 86/97/1 87/98/1 76/109/1
f 87/98/1 88/99/1 77/110/1
f 88/99/1 89/100/1 78/111/1
f 89/100/1 90/13/1 79/11/1
f 7/102/1 69/101/1 58/112/1
f 69/101/1 70/103/1 59/114/1
f 70/103/1 71/104/1 60/115/1
f 71/104/1 72/105/1 61/116/1
f 72/105/3 167/105/3 165/116/3
f 73/106/1 74/108/1 63/117/1
f 74/108/1 75/107/1 64/119/1
f 75/107/1 76/109/1 65/120/1
f 76/109/1 77/110/1 66/121/1
f 77/110/1 78/111/1 67/122/1
f 78/111/1 79/11/1 68/7/1
f 6/113/1 58/112/1 47/123/1
f 58/112/1 59/114/1 48/125/1
f 59/114/1 60/115/1 49/126/1
f 60/115/1 61/116/1 50/127/1
f 61/116/1 62/118/1 51/128/1
f 62/118/1 63/117/1 52/129/1
f 63/117/1 64/119/1 53/130/1
f 64/119/1 65/120/1 54/131/1
f 65/120/1 66/121/1 55/132/1
f 66/121/1 67/122/1 56/133/1
f 56/133/2 157/133/2 158/4/2
f 5/124/1 47/123/1 35/134/1
f 47/123/1 48/125/1 34/136/1
f 48/125/1 49/126/1 33/137/1
f 49/126/1 50/127/1 32/138/1
f 50/127/1 51/128/1 31/139/1
f 51/128/1 52/129/1 30/140/1
f 52/129/1 53/130/1 29/141/1
f 53/130/1 54/131/1 28/142/1
f 54/131/1 55/132/1 27/143/1
f 55/132/1 56/133/1 26/144/1
f 56/133/1 57/4/1 25/6/1
f 2/145/1 36/146/1 146/27/1
f 36/146/1 37/147/1 147/29/1
f 37/147/1 38/148/1 148/31/1
f 38/148/1 39/149/1 149/33/1
f 39/149/1 40/150/1 150/35/1
f 40/150/1 41/151/1 151/37/1
f 41/151/1 42/152/1 152/39/1
f 42/152/1 43/153/1 153/41/1
f 43/153/1 44/154/1 154/43/1
f 44/154/1 45/155/1 155/45/1
f 45/155/1 46/1/1 156/3/1
f 159/122/1 160/7/1 158/4/1
f 68/7/4 160/7/4 159/122/4
f 57/4/5 158/4/5 160/7/5
f 67/122/3 159/122/3 157/133/3
f 163/40/1 164/42/1 162/55/1
f 143/42/4 164/42/4 163/40/4
f 132/55/5 162/55/5 164/42/5
f 142/40/3 163/40/3 161/54/3
f 167/105/1 168/106/1 166/118/1
f 61/116/2 165/116/2 166/118/2
f 73/106/4 168/106/4 167/105/4
f 62/118/5 166/118/5 168/106/5
f 171/25/1 172/28/1 170/48/1
f 136/28/4 172/28/4 171/25/4
f 125/48/5 170/48/5 172/28/5
f 135/25/3 171/25/3 169/46/3
f 173/78/1 175/67/1 176/17/1
f 123/17/4 176/17/4 175/67/4
f 112/15/5 174/15/5 176/17/5
f 122/67/3 175/67/3 173/78/3
f 179/95/1 180/96/1 178/108/1
f 73/106/2 177/106/2 178/108/2
f 85/96/4 180/96/4 179/95/4
f 74/108/5 178/108/5 180/96/5
