# Blender 4.0.0 Alpha
# www.blender.org
mtllib grass.mtl
o Cube
v -218.816330 218.816330 218.816330
v -218.816330 -218.816330 218.816330
v 218.816330 218.816330 218.816330
v 218.816330 -218.816330 218.816330
v -218.816330 218.816330 -218.816330
v -218.816330 -218.816330 -218.816330
v 218.816330 218.816330 -218.816330
v 218.816330 -218.816330 -218.816330
vn -0.0000 -0.0000 1.0000
vn 1.0000 -0.0000 -0.0000
vn -0.0000 -0.0000 -1.0000
vn -1.0000 -0.0000 -0.0000
vn -0.0000 1.0000 -0.0000
vn -0.0000 -1.0000 -0.0000
vt 0.999512 0.666016
vt 0.750000 0.333984
vt 0.999512 0.333333
vt 0.750000 0.666667
vt 0.500000 0.333333
vt 0.750000 0.333333
vt 0.500000 0.666667
vt 0.251465 0.333333
vt 0.249512 0.666667
vt 0.000488 0.333333
vt 0.249512 0.333333
vt 0.500000 0.000000
vt 0.250000 0.333333
vt 0.500000 1.000000
vt 0.250000 0.666667
vt 0.251465 0.666667
vt 0.000488 0.666667
vt 0.250000 0.000000
vt 0.250000 1.000000
s 0
usemtl Material
f 2/1/1 3/2/1 1/3/1
f 4/4/2 7/5/2 3/6/2
f 8/7/3 5/8/3 7/5/3
f 6/9/4 1/10/4 5/11/4
f 7/12/5 1/13/5 3/5/5
f 4/14/6 6/15/6 8/7/6
f 2/1/1 4/4/1 3/2/1
f 4/4/2 8/7/2 7/5/2
f 8/7/3 6/16/3 5/8/3
f 6/9/4 2/17/4 1/10/4
f 7/12/5 5/18/5 1/13/5
f 4/14/6 2/19/6 6/15/6
o Plane
v -9.332309 -2.137067 9.332309
v -9.332309 0.000000 -9.332309
v 9.332309 -0.416722 9.332309
v 9.332309 0.000000 -9.332309
v 6.221539 -1.314348 9.332309
v 3.110769 -1.314348 9.332309
v -0.000000 -1.314348 9.332309
v -3.110770 -2.137067 9.332309
v -6.221539 -2.137067 9.332309
v -6.221539 0.000000 -9.332309
v -3.110769 0.000000 -9.332309
v 0.000000 0.000000 -9.332309
v 3.110770 0.000000 -9.332309
v 6.221539 0.000000 -9.332309
v -9.332309 -2.137067 6.221539
v -9.332309 -2.137067 3.110769
v -9.332309 -1.314348 -0.000000
v -9.332309 -0.416722 -3.110770
v -9.332309 0.000000 -6.221539
v 9.332309 0.000000 -6.221539
v 9.332309 0.000000 -3.110769
v 9.332309 0.000000 0.000000
v 9.332309 0.000000 3.110770
v 9.332309 -0.416722 6.221539
v -6.221539 0.000000 -6.221539
v -6.221539 0.000000 -3.110769
v -6.221539 -0.416722 0.000000
v -6.221539 -1.314348 3.110770
v -6.221539 -2.137067 6.221539
v -3.110770 0.000000 -6.221539
v -3.110770 0.000000 -3.110769
v -3.110770 -0.416722 0.000000
v -3.110770 -0.797394 3.110770
v -3.110770 -1.314348 6.221539
v 0.000000 0.000000 -6.221539
v 0.000000 0.000000 -3.110769
v -0.000000 0.000000 0.000000
v -0.000000 -0.416722 3.110770
v -0.000000 -1.085748 6.221539
v 3.110770 0.000000 -6.221539
v 3.110770 0.000000 -3.110769
v 3.110770 0.000000 0.000000
v 3.110770 -0.416722 3.110770
v 3.110770 -0.870740 6.221539
v 6.221539 0.000000 -6.221539
v 6.221539 0.000000 -3.110769
v 6.221539 0.000000 0.000000
v 6.221539 0.000000 3.110770
v 6.221539 -0.416722 6.221539
vn -0.0000 -1.0000 -0.0000
vn 0.0333 -0.9989 -0.0333
vn 0.0790 -0.9825 -0.1685
vn 0.1669 -0.9567 -0.2386
vn 0.0171 -0.9921 -0.1242
vn 0.0674 -0.9883 -0.1369
vn 0.1042 -0.9798 -0.1708
vn 0.0167 -0.9986 -0.0499
vn 0.0494 -0.9953 -0.0828
vn 0.0678 -0.9872 -0.1444
vn 0.0826 -0.9894 -0.1192
vn 0.0697 -0.9844 -0.1612
vn 0.1724 -0.9655 -0.1951
vn 0.1874 -0.9642 -0.1874
vn 0.1146 -0.9791 -0.1679
vn 0.0645 -0.9896 -0.1282
vn 0.1259 -0.9840 -0.1259
vn 0.2179 -0.9444 -0.2461
vn 0.1368 -0.9701 -0.2007
vn 0.2621 -0.9288 -0.2621
vn 0.1675 -0.9715 -0.1675
vn 0.1394 -0.9804 -0.1394
vn -0.0000 -0.9978 -0.0665
vt 2.645714 1.931429
vt 1.931429 2.645714
vt 1.931429 1.931429
vt 2.645714 -1.645714
vt 1.931429 -0.931429
vt 1.931429 -1.645714
vt 2.645714 -0.931429
vt 1.931429 -0.214286
vt 2.645714 -0.214286
vt 1.931429 0.500000
vt 2.645714 0.500000
vt 1.931429 1.214286
vt 2.645714 1.214286
vt -0.931429 1.214286
vt -1.645714 1.931429
vt -1.645714 1.214286
vt -0.214286 1.214286
vt -0.931429 1.931429
vt 0.500000 1.214286
vt -0.214286 1.931429
vt 1.214286 1.214286
vt 0.500000 1.931429
vt 1.214286 1.931429
vt -0.931429 0.500000
vt -1.645714 0.500000
vt -0.214286 0.500000
vt 0.500000 0.500000
vt 1.214286 0.500000
vt -0.931429 -0.214286
vt -1.645714 -0.214286
vt -0.214286 -0.214286
vt 0.500000 -0.214286
vt 1.214286 -0.214286
vt -0.931429 -0.931429
vt -1.645714 -0.931429
vt -0.214286 -0.931429
vt 0.500000 -0.931429
vt 1.214286 -0.931429
vt -0.931429 -1.645714
vt -1.645714 -1.645714
vt -0.214286 -1.645714
vt 0.500000 -1.645714
vt 1.214286 -1.645714
vt -1.645714 2.645714
vt -0.931429 2.645714
vt -0.214286 2.645714
vt 0.500000 2.645714
vt 1.214286 2.645714
vt 2.645714 2.645714
s 1
usemtl grass
f 22/20/7 28/21/7 53/22/7
f 10/23/7 33/24/7 27/25/8
f 18/26/7 38/27/7 33/24/7
f 19/28/7 43/29/7 38/27/7
f 20/30/7 48/31/7 43/29/7
f 21/32/7 53/22/7 48/31/7
f 52/33/9 13/34/10 14/35/11
f 51/36/12 57/37/13 52/33/9
f 50/38/14 56/39/15 51/36/12
f 49/40/7 55/41/7 50/38/14
f 48/31/7 54/42/7 49/40/7
f 47/43/16 14/35/11 15/44/17
f 46/45/18 52/33/9 47/43/16
f 45/46/15 51/36/12 46/45/18
f 44/47/7 50/38/14 45/46/15
f 43/29/7 49/40/7 44/47/7
f 42/48/19 15/44/17 16/49/20
f 41/50/21 47/43/16 42/48/19
f 40/51/22 46/45/18 41/50/21
f 39/52/14 45/46/15 40/51/22
f 38/27/7 44/47/7 39/52/14
f 37/53/23 16/49/20 17/54/7
f 36/55/24 42/48/19 37/53/23
f 35/56/25 41/50/21 36/55/24
f 34/57/15 40/51/22 35/56/25
f 33/24/7 39/52/14 34/57/15
f 23/58/7 17/54/7 9/59/7
f 24/60/20 37/53/23 23/58/7
f 25/61/26 36/55/24 24/60/20
f 26/62/27 35/56/25 25/61/26
f 27/25/8 34/57/15 26/62/27
f 57/37/13 11/63/28 13/34/10
f 56/39/15 32/64/29 57/37/13
f 55/41/7 31/65/29 56/39/15
f 54/42/7 30/66/7 55/41/7
f 53/22/7 29/67/7 54/42/7
f 22/20/7 12/68/7 28/21/7
f 10/23/7 18/26/7 33/24/7
f 18/26/7 19/28/7 38/27/7
f 19/28/7 20/30/7 43/29/7
f 20/30/7 21/32/7 48/31/7
f 21/32/7 22/20/7 53/22/7
f 52/33/9 57/37/13 13/34/10
f 51/36/12 56/39/15 57/37/13
f 50/38/14 55/41/7 56/39/15
f 49/40/7 54/42/7 55/41/7
f 48/31/7 53/22/7 54/42/7
f 47/43/16 52/33/9 14/35/11
f 46/45/18 51/36/12 52/33/9
f 45/46/15 50/38/14 51/36/12
f 44/47/7 49/40/7 50/38/14
f 43/29/7 48/31/7 49/40/7
f 42/48/19 47/43/16 15/44/17
f 41/50/21 46/45/18 47/43/16
f 40/51/22 45/46/15 46/45/18
f 39/52/14 44/47/7 45/46/15
f 38/27/7 43/29/7 44/47/7
f 37/53/23 42/48/19 16/49/20
f 36/55/24 41/50/21 42/48/19
f 35/56/25 40/51/22 41/50/21
f 34/57/15 39/52/14 40/51/22
f 33/24/7 38/27/7 39/52/14
f 23/58/7 37/53/23 17/54/7
f 24/60/20 36/55/24 37/53/23
f 25/61/26 35/56/25 36/55/24
f 26/62/27 34/57/15 35/56/25
f 27/25/8 33/24/7 34/57/15
f 57/37/13 32/64/29 11/63/28
f 56/39/15 31/65/29 32/64/29
f 55/41/7 30/66/7 31/65/29
f 54/42/7 29/67/7 30/66/7
f 53/22/7 28/21/7 29/67/7
